<?xml version="1.0" standalone="no"?>
<!DOCTYPE svg PUBLIC "-//W3C//DTD SVG 20010904//EN"
 "http://www.w3.org/TR/2001/REC-SVG-20010904/DTD/svg10.dtd">
<svg version="1.0" xmlns="http://www.w3.org/2000/svg"
 width="424.000000pt" height="466.000000pt" viewBox="0 0 424.000000 466.000000"
 preserveAspectRatio="xMidYMid meet">
<metadata>
Created by potrace 1.15, written by Peter Selinger 2001-2017
</metadata>
<g transform="translate(0.000000,466.000000) scale(0.100000,-0.100000)"
fill="#000000" stroke="none">
<path d="M10 2336 l0 -2323 258 103 c193 78 763 276 920 320 9 3 12 311 12
1499 l0 1495 920 0 920 0 0 -1325 c0 -729 2 -1325 3 -1325 2 0 130 18 283 40
306 44 702 94 832 105 l82 7 0 1864 0 1864 -2115 0 -2115 0 0 -2324z"/>
</g>
</svg>
